<svg xmlns="http://www.w3.org/2000/svg" width="206.159" height="49.917" viewBox="0 0 206.159 49.917"><g transform="translate(131.685)"><path d="M575.483,248.915s-5.469-4.813-8.752-5.689-10.283-1.848-12.253-1.14-2.188,1.361-4.158,1.361-10.065.875-10.94.219-6.564-2.984-9.846-1.819a24.456,24.456,0,0,0-8.752,5.32,14.393,14.393,0,0,0-3.72,10.5,77.57,77.57,0,0,0,2.188,9.844c.437,1.75-1.969,1.969-1.094,3.5s3.6,6.424,3.209,7.639c-.357,1.106-1.362,2.82.506,2.864l6.206.022c1.128.022.61-1.022.61-1.022s.2.007.375,0a3.213,3.213,0,0,0,.745-.089s.632-1.025-.681-1.68-2.662-6.418-2.443-8.392c0,0,4.814-2.188,5.251-4.592,0,0,6.345,3.5,12.253,3.5s8.752-1.094,8.752-1.094l.218,1.75s-1.046,3.63-.438,5.907c.875,3.257-1.25,4.084-.6,5.473.112.239,2.6.239,2.6.239h4.614c1.353-.17.669-1,.669-1s.516.036.973.036c1.129,0,1.249-.141,1.249-.141.317-1.5-.778-1.321-1.528-1.952s-.323-5.057-.1-6.807,1.531-5.467,3.72-6.561,4.155-1.75,5.251-1.532a18.49,18.49,0,0,0,2.844.219,9.243,9.243,0,0,1,3.062,1.75c1.094,1.093,3.939,1.967,6.347,1.967s1.969.438,4.376.219l2.406-.219s3.5-.972,1.094-5.845c0,0,3.44-4.218.844-11.656,0,0-.188,6.783-5,9.409,0,0,.438-5.034-.219-5.251a26.308,26.308,0,0,0-2.626,3.063s-.219-2.187-1.093-2.626a1.641,1.641,0,0,1,0-2.626,6.029,6.029,0,0,0,1.751-1.968l-3.72,1.094s-.218-3.5-.875-3.938a3.928,3.928,0,0,0-1.969-.875c-.657,0-1.314,2.626-1.314,2.626" transform="translate(-517.037 -231.625)" fill="#fff"/><path d="M627.26,210.8a2.208,2.208,0,0,1,1.96-.244c1.031.415,1.718,1.893,1.926,2.237s.757.55.86.722a6.13,6.13,0,0,1,1.376,2.029l.79,1.925v.172l-.309-.206.309.757,2.682,1.34v.138l-.689-.206-.274.206-.448-.172-.274.172a8.217,8.217,0,0,0-1.75-.412,10.436,10.436,0,0,0-1.513.412,5.241,5.241,0,0,0-.55.791c0,.058.082.155.213.195.061.019.137-.043.195-.034.159.024.152.212.152.212a.547.547,0,0,0-.086-.044c-.046-.012-.079.038-.119.045a1.063,1.063,0,0,0-.371.064c-.195.07-.369.256-.7.714-.083.114-.1,0-.233.241-.021.039-.055-.316.062-.349.181-.052.321-.519.321-.519a5.967,5.967,0,0,0-.516.542c-.146.182-.155-.022-.3.257-.031.06-.055-.3.124-.389a4.76,4.76,0,0,0,.414-.413,2.527,2.527,0,0,1-.539.32c-.112,0-.21.14-.21.14a.351.351,0,0,1,.222-.365c.377-.131.539-.406.672-.458.389-.156.778-.883.778-.883l-.171-.1s-1.167.155-1.4-.051-.778.847-.812.951a.157.157,0,0,0,.247.123c.142-.075.218.122.218.122s-.053-.033-.143.026-.175.02-.237.07c-.743.583-.62.778-.818.825-.168.036-.172.16-.172.16a.262.262,0,0,1,.089-.317,1.122,1.122,0,0,0,.308-.437c-.266.158-.428.511-.67.55-.215.036-.162.189-.183.124a.261.261,0,0,1,.144-.307,1.97,1.97,0,0,0,.44-.45c-.181.13-.332.346-.594.356-.063,0-.084.149-.084.149-.064-.1.042-.308.129-.341.405-.154.44-.381.7-.514a2.3,2.3,0,0,0,.757-1.055,1.264,1.264,0,0,1-.355-.637s-1.032-1.932-.791-2.737a2.607,2.607,0,0,1-.207-2.626c.62-1.718-.549-1.907-.549-1.907a5.071,5.071,0,0,1-1.41-.7,1.355,1.355,0,0,1,1.41-.208" transform="translate(-591.209 -210.429)" fill="#fff"/></g><g transform="translate(0 15.36)"><g transform="translate(0 2.307)"><path d="M112.037,284.766h-2.306a13.959,13.959,0,0,1-2.949-.256,3.746,3.746,0,0,1-1.823-.9,3.4,3.4,0,0,1-.926-1.724,11.977,11.977,0,0,1-.257-2.705V266.505l3.7-.6v4.046h5.327l-.6,3.049H107.48v5.982a7.91,7.91,0,0,0,.1,1.4,1.677,1.677,0,0,0,.37.84,1.361,1.361,0,0,0,.769.4,6.62,6.62,0,0,0,1.264.1h2.65Z" transform="translate(-103.775 -265.906)" fill="#fff"/></g><path d="M148.526,289.6l2.706-11h3.532l-4.387,14.813h-3.7l-2.593-10.344-2.621,10.34H137.7l-4.33-14.813H137.1l2.564,10.938,2.82-10.938h3.36Z" transform="translate(-123.942 -272.253)" fill="#fff"/><g transform="translate(30.501)"><path d="M209.937,284.21a12.782,12.782,0,0,0-.143-2.122,2.627,2.627,0,0,0-.5-1.239,1.737,1.737,0,0,0-1-.569,7.9,7.9,0,0,0-1.667-.143,8.12,8.12,0,0,0-1.68.143,1.751,1.751,0,0,0-1.011.569,2.626,2.626,0,0,0-.5,1.239,12.721,12.721,0,0,0-.142,2.122v1.68a12.457,12.457,0,0,0,.142,2.108,2.6,2.6,0,0,0,.5,1.224,1.75,1.75,0,0,0,1.011.57,8.126,8.126,0,0,0,1.68.142,7.915,7.915,0,0,0,1.667-.142,1.737,1.737,0,0,0,1-.57,2.6,2.6,0,0,0,.5-1.224,12.513,12.513,0,0,0,.143-2.108Zm-3.306-7.036a13.276,13.276,0,0,1,3.247.342,4.857,4.857,0,0,1,2.194,1.154,4.668,4.668,0,0,1,1.24,2.179,12.86,12.86,0,0,1,.384,3.418v1.538a12.86,12.86,0,0,1-.384,3.418,4.668,4.668,0,0,1-1.24,2.179,4.854,4.854,0,0,1-2.194,1.154,15.714,15.714,0,0,1-6.522,0,4.857,4.857,0,0,1-2.194-1.154,4.675,4.675,0,0,1-1.239-2.179,12.828,12.828,0,0,1-.389-3.418v-1.538a12.837,12.837,0,0,1,.389-3.418,4.676,4.676,0,0,1,1.239-2.179,4.863,4.863,0,0,1,2.194-1.153,13.409,13.409,0,0,1,3.275-.342" transform="translate(-199.53 -271.278)" fill="#fff"/><path d="M255.127,288.911a7.018,7.018,0,0,0,1.653-.157,2.093,2.093,0,0,0,1-.527,1.911,1.911,0,0,0,.5-1,8.188,8.188,0,0,0,.128-1.6v-1.4a19.972,19.972,0,0,0-.086-2.051,2.523,2.523,0,0,0-.427-1.254,1.751,1.751,0,0,0-1-.627,9.2,9.2,0,0,0-3.533,0,1.751,1.751,0,0,0-1,.627,2.5,2.5,0,0,0-.427,1.254,19.849,19.849,0,0,0-.086,2.051v.57a17.007,17.007,0,0,0,.1,2.05,2.7,2.7,0,0,0,.427,1.254,1.678,1.678,0,0,0,.983.626,7.254,7.254,0,0,0,1.767.171m3.275,1.937a4.537,4.537,0,0,1-1.452.746,7.919,7.919,0,0,1-2.364.285,9.59,9.59,0,0,1-3.091-.427,4.534,4.534,0,0,1-1.995-1.3,5.18,5.18,0,0,1-1.082-2.179,12.642,12.642,0,0,1-.328-3.048v-.8a13.312,13.312,0,0,1,.3-2.977,4.794,4.794,0,0,1,1.1-2.179,4.968,4.968,0,0,1,2.151-1.339,13.338,13.338,0,0,1,6.965.015,5.105,5.105,0,0,1,2.15,1.325,4.534,4.534,0,0,1,1.07,2.065,11.791,11.791,0,0,1,.285,2.692v7.349a9.835,9.835,0,0,1-.389,2.935,4.387,4.387,0,0,1-1.239,1.994,5.219,5.219,0,0,1-2.194,1.125,12.8,12.8,0,0,1-3.247.357h-2.308q-.626,0-1.381-.015t-1.778-.049l.6-2.962q.8.028,1.438.043t1.2.014h2.066a7.3,7.3,0,0,0,1.639-.157,2.421,2.421,0,0,0,1.1-.541,2.148,2.148,0,0,0,.613-1.07,6.639,6.639,0,0,0,.186-1.71Z" transform="translate(-232.614 -271.278)" fill="#fff"/><path d="M302.529,279.965a6.393,6.393,0,0,0-1.568.157,1.758,1.758,0,0,0-.939.57,2.285,2.285,0,0,0-.456,1.111,11.332,11.332,0,0,0-.114,1.78h6.127v-.655a5.867,5.867,0,0,0-.142-1.4,1.916,1.916,0,0,0-.486-.911,2.023,2.023,0,0,0-.94-.5,5.953,5.953,0,0,0-1.48-.157m-3.077,6.321a10.075,10.075,0,0,0,.114,1.68,1.723,1.723,0,0,0,1.453,1.539,7.7,7.7,0,0,0,1.653.143h2.279q1.282,0,3.163-.056l-.57,2.848q-.8.028-1.425.043t-1.211.014H302.5a10.283,10.283,0,0,1-3.333-.456,4.5,4.5,0,0,1-3.12-3.4,12.129,12.129,0,0,1-.3-2.834v-1.6a13.047,13.047,0,0,1,.313-3.02,5.093,5.093,0,0,1,1.1-2.207,4.793,4.793,0,0,1,2.108-1.354,10.434,10.434,0,0,1,3.346-.455,10.015,10.015,0,0,1,3.12.413,5.089,5.089,0,0,1,1.994,1.154,4.13,4.13,0,0,1,1.07,1.75,7.42,7.42,0,0,1,.314,2.208v.486a8.949,8.949,0,0,1-.115,1.581,2.151,2.151,0,0,1-.389.954,1.3,1.3,0,0,1-.7.456,4.17,4.17,0,0,1-1.054.114Z" transform="translate(-265.089 -271.277)" fill="#fff"/><path d="M348.716,284.766h-2.308a13.959,13.959,0,0,1-2.949-.256,3.748,3.748,0,0,1-1.822-.9,3.4,3.4,0,0,1-.927-1.724,12,12,0,0,1-.256-2.705V266.505l3.7-.6v4.046h5.327l-.6,3.049h-4.729v5.982a7.911,7.911,0,0,0,.1,1.4,1.68,1.68,0,0,0,.369.84,1.361,1.361,0,0,0,.769.4,6.619,6.619,0,0,0,1.264.1h2.65Z" transform="translate(-295.551 -263.599)" fill="#fff"/><path d="M371.571,279.831V258.666h3.7v7.064a4.319,4.319,0,0,1,1.425-.812,7.782,7.782,0,0,1,2.65-.356,7.029,7.029,0,0,1,4.2,1.124,4.35,4.35,0,0,1,1.556,3.775v10.37h-3.7V270.2a6.671,6.671,0,0,0-.086-1.14,1.579,1.579,0,0,0-.389-.811,1.788,1.788,0,0,0-.868-.486,6.046,6.046,0,0,0-1.538-.157,6.348,6.348,0,0,0-1.623.171,2.042,2.042,0,0,0-.983.555,2.165,2.165,0,0,0-.5,1.026,7.226,7.226,0,0,0-.143,1.556v8.917Z" transform="translate(-316.755 -258.666)" fill="#fff"/><path d="M424.042,279.965a6.387,6.387,0,0,0-1.567.157,1.759,1.759,0,0,0-.939.57,2.285,2.285,0,0,0-.455,1.111,11.328,11.328,0,0,0-.115,1.78h6.127v-.655a5.864,5.864,0,0,0-.143-1.4,1.913,1.913,0,0,0-.486-.911,2.021,2.021,0,0,0-.94-.5,5.953,5.953,0,0,0-1.481-.157m-3.077,6.321a10.052,10.052,0,0,0,.115,1.68,1.723,1.723,0,0,0,1.453,1.538,7.694,7.694,0,0,0,1.653.143h2.279q1.282,0,3.163-.056l-.57,2.848q-.8.028-1.425.043t-1.211.014h-2.413a10.282,10.282,0,0,1-3.333-.456,4.5,4.5,0,0,1-3.12-3.4,12.125,12.125,0,0,1-.3-2.834v-1.6a13.083,13.083,0,0,1,.313-3.02,5.09,5.09,0,0,1,1.1-2.207,4.792,4.792,0,0,1,2.108-1.354,10.437,10.437,0,0,1,3.346-.455,10.01,10.01,0,0,1,3.12.413,5.088,5.088,0,0,1,1.994,1.154,4.128,4.128,0,0,1,1.07,1.75,7.425,7.425,0,0,1,.314,2.208v.486a8.944,8.944,0,0,1-.115,1.581,2.141,2.141,0,0,1-.389.954,1.3,1.3,0,0,1-.7.456,4.171,4.171,0,0,1-1.054.114Z" transform="translate(-347.889 -271.277)" fill="#fff"/><path d="M465.672,293.3h-3.7v-9.74a6.421,6.421,0,0,1,.4-2.407,3.739,3.739,0,0,1,1.167-1.581,4.917,4.917,0,0,1,1.88-.868,10.75,10.75,0,0,1,2.535-.271H469.8q.77,0,1.51.028l-.6,3.077q-.57-.028-1.254-.043t-1.14-.014a4.7,4.7,0,0,0-1.426.17,1.779,1.779,0,0,0-.8.5,1.564,1.564,0,0,0-.356.826,8.492,8.492,0,0,0-.071,1.182Z" transform="translate(-378.353 -272.13)" fill="#fff"/></g></g></svg>