<svg xmlns="http://www.w3.org/2000/svg" xmlns:xlink="http://www.w3.org/1999/xlink" width="150" height="90" viewBox="0 0 150 90">
  <defs>
    <clipPath id="clip-path">
      <rect id="Rectangle_162017" data-name="Rectangle 162017" width="150" height="90" fill="#fff" stroke="#707070" stroke-width="1"/>
    </clipPath>
    <clipPath id="clip-path-2">
      <rect id="Rectangle_161832" data-name="Rectangle 161832" width="90.007" height="90" fill="none"/>
    </clipPath>
    <clipPath id="clip-Logo-savetherhino-black-large">
      <rect width="150" height="90"/>
    </clipPath>
  </defs>
  <g id="Logo-savetherhino-black-large" clip-path="url(#clip-Logo-savetherhino-black-large)">
    <g id="Mask_Group_684" data-name="Mask Group 684" clip-path="url(#clip-path)">
      <g id="Group_31136" data-name="Group 31136">
        <path id="Path_34314" data-name="Path 34314" d="M2.18,2.18H87.828V87.813H2.18ZM0,90H90.007V0H0Z" fill="#282828"/>
        <g id="Group_31135" data-name="Group 31135">
          <g id="Group_31134" data-name="Group 31134" clip-path="url(#clip-path-2)">
            <path id="Path_34315" data-name="Path 34315" d="M44.358,54.574a1.387,1.387,0,0,1-.009,1.755c-.063-.007-10.229.023-10.139,0-.59-.472-.472-.929.472-1.4s4.576-8.385,5.992-12.043a27.34,27.34,0,0,0,6.988,4.373Zm2.478,1.755c-.5-.354-.062-1.066,1-1.892S50.7,48.373,50.7,48.373l1.827.268-.263-1.265c-7.81-1.334-13.334-8.259-13.334-8.259a1.708,1.708,0,0,1-1.444.511c-1-.243-.506-1.294-.506-1.294l-.882-.279c-.944,4.248-10.4,5.932-12.64,5.813a7.282,7.282,0,0,1-3.5-.981,2.72,2.72,0,0,1-2.522-.21,3.536,3.536,0,0,1-.57-4.387c-1.77-2.714-3.914-10.535-2.242-13.1.944,4.72,2.793,7.359,4.563,8.657,1.416,0,3.152-1.331,2.592-5.464a4.5,4.5,0,0,0,5.707.111c1.77-1.18.944-2.714,1.062-3.894s1.534-1.18,1.534-1.18a7.344,7.344,0,0,1-1.367-1.412c-.59-.826-.07-3.223-.07-3.223s1.933.52,2.382,1.611a3.64,3.64,0,0,1,.117,2.316s18.054-8.5,20.3-8.5a5.8,5.8,0,0,1,1.712.447V12.542H12.184V61.274H53.149V56.329Z" transform="translate(-7.917 -8.15)" fill="#282828"/>
            <path id="Path_34316" data-name="Path 34316" d="M129.206,60.268H133.1a1.085,1.085,0,0,0,.282-1.4c-.472-.826,2.36-6.726,2.36-6.726s11.091-.118,18.054-4.366l-1.416-2.6,1.062-.236L158.4,53.2s-1.534,4.129-2.242,4.838-2.131.7-1.7,2.227h10.974a1.029,1.029,0,0,0-.072-1.519c1.18-2.478,2.832-5.428,2.832-6.608s-2.36-2.832-2.36-3.776,3.894-6.49,3.658-8.614-1.77-5.31-2.714-8.142c-3.422-3.54-9.912-10.266-12.862-10.384s-8.614,3.068-11.21,3.186c-1.777.081-9.686-4.362-13.524-5.807Z" transform="translate(-83.938 -12.089)" fill="#282828"/>
            <path id="Path_34317" data-name="Path 34317" d="M87.258,64.687l.944,1.062c.067-.338,0,4.263-3.068,6.136l-.825-.944a8.988,8.988,0,0,0,2.123-2.714,11.481,11.481,0,0,0,.826-3.54" transform="translate(-54.782 -42.032)" fill="#282828"/>
            <path id="Path_34318" data-name="Path 34318" d="M168.258,116.073s-.625-.4-.544-.929c.164-1.078,1.652-.826,2.242-2.006s1.668-3.821,2.4-5.735a26.354,26.354,0,0,0,7-2.915l1.989,3.258s-3.125,5.864-3.243,6.454.808.646.59,1.873c0,0-10.294,0-10.43,0" transform="translate(-108.972 -67.894)" fill="#282828"/>
            <path id="Path_34319" data-name="Path 34319" d="M51.49,70.95a3.607,3.607,0,0,0,3.3-1.062,4.322,4.322,0,0,1-2.152.1c-.809-.2-1.152.96-1.152.96" transform="translate(-33.457 -45.412)" fill="#282828"/>
            <path id="Path_34320" data-name="Path 34320" d="M22.3,161.981l-1.151,3.3a3.22,3.22,0,0,0-2.6-1.528q-.815,0-.815.617a.534.534,0,0,0,.257.391,7.006,7.006,0,0,0,1.346.623,13.342,13.342,0,0,1,1.847.86,2.552,2.552,0,0,1,.969.99,3.211,3.211,0,0,1-.952,3.963,6.593,6.593,0,0,1-3.748.881,13.054,13.054,0,0,1-4.783-.789l1.13-3.495a3.875,3.875,0,0,0,1.223,1.22,2.671,2.671,0,0,0,1.4.453.877.877,0,0,0,.551-.172.512.512,0,0,0,.223-.418.623.623,0,0,0-.216-.445,4.252,4.252,0,0,0-1.14-.589,10.76,10.76,0,0,1-1.384-.654,2.967,2.967,0,0,1-.952-.908,2.57,2.57,0,0,1-.4-1.487,2.99,2.99,0,0,1,1.267-2.624,6.545,6.545,0,0,1,3.741-.884,12.185,12.185,0,0,1,4.186.7" transform="translate(-8.234 -104.797)" fill="#282828"/>
            <path id="Path_34321" data-name="Path 34321" d="M46.918,167.973h1.713l-.856-2.6Zm-1.446,4.233H40.841l3.631-10.455h6.6L54.7,172.206H50.077l-.6-1.767h-3.4Z" transform="translate(-26.538 -105.102)" fill="#282828"/>
            <path id="Path_34322" data-name="Path 34322" d="M86.788,161.751l-3.549,10.455H78.751L75.2,161.751h4.618l1.179,3.521,1.179-3.521Z" transform="translate(-48.86 -105.102)" fill="#282828"/>
            <path id="Path_34323" data-name="Path 34323" d="M118.66,169.582v2.624h-8.681V161.751h8.681v2.624H114.6v1.295h2.823v2.625H114.6v1.288Z" transform="translate(-71.462 -105.102)" fill="#282828"/>
            <path id="Path_34324" data-name="Path 34324" d="M152.892,166.382v-4.631h9.291v4.631h-2.33v5.824h-4.632v-5.824Z" transform="translate(-99.346 -105.102)" fill="#282828"/>
            <path id="Path_34325" data-name="Path 34325" d="M186.983,172.206h-4.632V161.751h4.632v3.83h2.357v-3.83h4.632v10.455H189.34v-3.885h-2.357Z" transform="translate(-118.488 -105.102)" fill="#282828"/>
            <path id="Path_34326" data-name="Path 34326" d="M227.344,169.582v2.624h-8.681V161.751h8.681v2.624h-4.056v1.295h2.823v2.625h-2.823v1.288Z" transform="translate(-142.082 -105.102)" fill="#282828"/>
            <path id="Path_34327" data-name="Path 34327" d="M19.924,204.143v2.913h.188q1.8,0,1.8-1.417a1.61,1.61,0,0,0-.367-1.046,1.487,1.487,0,0,0-1.219-.45Zm-6.69-3.113h9.882a5.891,5.891,0,0,1,4.034,1.293,4.139,4.139,0,0,1,1.467,3.237,3.869,3.869,0,0,1-1.724,3.351,12.739,12.739,0,0,1,2.924,7.245H22.868a11.931,11.931,0,0,0-.858-4.233,2.195,2.195,0,0,0-2.086-1.368v5.6h-6.69Z" transform="translate(-8.599 -130.625)" fill="#282828"/>
            <path id="Path_34328" data-name="Path 34328" d="M74.29,216.155h-6.7V201.03h6.7v5.541H77.7V201.03h6.7v15.126H77.7v-5.621H74.29Z" transform="translate(-43.918 -130.624)" fill="#282828"/>
            <rect id="Rectangle_161831" data-name="Rectangle 161831" width="6.69" height="15.126" transform="translate(43.284 70.405)" fill="#282828"/>
            <path id="Path_34329" data-name="Path 34329" d="M165.754,216.274h-5.075l-3.251-4.768v4.649h-6.69V201.03h4.787l3.529,5.114V201.03h6.7Z" transform="translate(-97.946 -130.625)" fill="#282828"/>
            <path id="Path_34330" data-name="Path 34330" d="M208.675,206.149a1.409,1.409,0,0,0-1.07.451,1.723,1.723,0,0,0,0,2.269,1.506,1.506,0,0,0,2.151,0,1.723,1.723,0,0,0,0-2.269,1.422,1.422,0,0,0-1.08-.451m0,9.812a7.447,7.447,0,0,1-5.5-2.275,7.923,7.923,0,0,1,0-11.071,7.756,7.756,0,0,1,13.257,5.527,7.579,7.579,0,0,1-2.255,5.545,7.457,7.457,0,0,1-5.506,2.275" transform="translate(-130.556 -130.183)" fill="#282828"/>
          </g>
        </g>
      </g>
    </g>
  </g>
</svg>
