<svg xmlns="http://www.w3.org/2000/svg" width="119.572" height="25.262" viewBox="0 0 119.572 25.262"><path d="M4.347,6.728V24.794H0V0H4.458L17.125,17.582V0h4.347V24.794h-4.2Z" fill="#fff"/><path d="M42.231,0H59.2V3.829H46.577v6.43h12.37v3.825H46.577v6.881H59.2v3.829H42.231Z" transform="translate(-17.418)" fill="#fff"/><path d="M86.621,15.092l-6.947,9.7h-5.2L83.755,12.08,75.031,0h5.2l6.389,9.108L92.974,0h5.237L89.519,12.043l9.25,12.75h-5.2Z" transform="translate(-30.718)" fill="#fff"/><path d="M122.871,3.829h-7.877L117.8,0h17.665l-2.873,3.829h-5.377V24.794h-4.347Z" transform="translate(-47.43)" fill="#fff"/><path d="M149.941,3.829,152.793,0h6.624V24.794h-4.345V3.829Z" transform="translate(-61.846)" fill="#fff"/><g transform="translate(100.918)"><path d="M174.249,18.437a8.544,8.544,0,0,0,6.687,2.934c3.12,0,5.089-1.934,5.089-4.348,0-2.676-1.931-4.423-4.978-4.423a7.448,7.448,0,0,0-5.428,2.157l-3.081-.892V0h16.235V3.829H176.889V11A8.069,8.069,0,0,1,182.5,8.848a7.685,7.685,0,0,1,7.912,7.991c0,5.167-3.9,8.4-9.435,8.4a11.316,11.316,0,0,1-9.213-3.829Z" transform="translate(-171.762)" fill="#fff"/></g></svg>