<svg xmlns="http://www.w3.org/2000/svg" xmlns:xlink="http://www.w3.org/1999/xlink" width="150" height="90" viewBox="0 0 150 90">
  <defs>
    <clipPath id="clip-Logo-pentup-black-large">
      <rect width="150" height="90"/>
    </clipPath>
  </defs>
  <g id="Logo-pentup-black-large" clip-path="url(#clip-Logo-pentup-black-large)">
    <g id="Group_31596" data-name="Group 31596" transform="translate(-27.266 -6.069)">
      <g id="Group_31595" data-name="Group 31595" transform="translate(27.266 22.875)">
        <g id="Group_31590" data-name="Group 31590" transform="translate(0 23.371)">
          <path id="Path_40052" data-name="Path 40052" d="M60.378,126.871a8.656,8.656,0,0,1,5.456-3.055,4.6,4.6,0,0,1,2.469.285c.653.291,1.141.87.335,1.648-.334.323-.688.625-1.039.929a9.929,9.929,0,0,0-1.865,1.994,4.663,4.663,0,0,0,.695,5.977,9.387,9.387,0,0,0,3.518,1.9c.189.06.381.113.574.163s.384.091.576.136a.606.606,0,0,0-.183-.191,7.874,7.874,0,0,1-2.267-2.482,3.031,3.031,0,0,1,.117-3.256,6.3,6.3,0,0,1,1.492-1.557c.894-.7,1.806-1.385,2.675-2.117a3.058,3.058,0,0,0,1.025-3.124,4.769,4.769,0,0,0-2.551-3.38,8.1,8.1,0,0,0-5.217-.8,7.253,7.253,0,0,0-6.05,7.211C60.242,127.031,60.307,126.949,60.378,126.871Z" transform="translate(-50.189 -113.857)" fill-rule="evenodd"/>
          <path id="Path_40053" data-name="Path 40053" d="M31.845,100.688a.781.781,0,0,1,.081,1.253,4.133,4.133,0,0,1-.57.478c-.711.532-1.464,1.014-2.13,1.6a15.705,15.705,0,0,0-1.693,1.783.965.965,0,0,0,.186,1.481c.218.18.439.356.669.52a.994.994,0,0,0,1.524-.082,3.343,3.343,0,0,1,1.911-.883c.644-.065,1.291-.1,1.936-.145a1.383,1.383,0,0,0,1.526-1.291c0-.007.011-.012.036-.04a5.753,5.753,0,0,1,3.853,2.085,2.082,2.082,0,0,0,.336-1.888,7.634,7.634,0,0,0-2.809-4.007,7.446,7.446,0,0,0-4.1-1.434,3.091,3.091,0,0,0-1.33.164C31.472,100.42,31.671,100.54,31.845,100.688Z" transform="translate(-27.266 -100.103)" fill-rule="evenodd"/>
          <path id="Path_40054" data-name="Path 40054" d="M72.577,100.947a2.273,2.273,0,1,0,2.291,2.262A2.268,2.268,0,0,0,72.577,100.947Z" transform="translate(-57.292 -100.692)" fill-rule="evenodd"/>
        </g>
        <g id="Group_31591" data-name="Group 31591" transform="translate(6.989 9.222)">
          <path id="Path_40055" data-name="Path 40055" d="M68.666,73.469a1.776,1.776,0,0,1,.648.481,2.752,2.752,0,0,1,.578,1.959,3.833,3.833,0,0,1-.669,1.979c-.045.065-.06.224-.018.261a.375.375,0,0,0,.284.055.966.966,0,0,0,.29-.139,6.321,6.321,0,0,0,1.63-1.335,3.624,3.624,0,0,0,.2-4.806,4.764,4.764,0,0,0-2.277-1.5,21.07,21.07,0,0,0-5.547-.987,35.386,35.386,0,0,0-5.822.08.242.242,0,0,1-.28-.132,1.683,1.683,0,0,0-1.62-.91,30.824,30.824,0,0,0-4.459.413,5.471,5.471,0,0,0-1.023.3.439.439,0,0,0-.225.332c0,.1.151.208.251.293a.409.409,0,0,0,.212.061c.338.035.677.07,1.016.094.769.055,1.539.1,2.308.157a.721.721,0,0,1,.7.535,2.023,2.023,0,0,0,1.908,1.458c1.163.129,2.329.233,3.494.351.451.046.9.1,1.383.155,0,.842-.051,1.658.01,2.466A10.4,10.4,0,0,0,63.5,80.3a14.651,14.651,0,0,0,5.874,4.873,1.24,1.24,0,0,0,.274.114c.128.025.2-.026.128-.167-.026-.052-.057-.1-.086-.151a24.284,24.284,0,0,1-3.236-9.259,9.451,9.451,0,0,1,.03-2.5A4.9,4.9,0,0,1,68.666,73.469Z" transform="translate(-50.36 -63.898)" fill-rule="evenodd"/>
          <path id="Path_40056" data-name="Path 40056" d="M93.722,55.643A2.273,2.273,0,1,0,91.45,57.9,2.271,2.271,0,0,0,93.722,55.643Z" transform="translate(-77.429 -53.348)" fill-rule="evenodd"/>
        </g>
        <g id="Group_31592" data-name="Group 31592" transform="translate(31.246 16.127)">
          <path id="Path_40057" data-name="Path 40057" d="M158.207,84.384c-.084,0-.168,0-.251,0-.771.043-1.541.1-2.312.128-1.352.044-2.7.105-4.056.087a3.8,3.8,0,0,1-2.63-.969c-.392-.366-.6-.232-.885.047-.06.058-.116.119-.173.179a.661.661,0,0,1-.59.2,21.622,21.622,0,0,1-3.725-.756,7.312,7.312,0,0,1-3.233-1.834,3.434,3.434,0,0,1-1.033-3.06,7.053,7.053,0,0,1,.665-1.971.871.871,0,0,0,.038-.27.791.791,0,0,0-.29.028,8.572,8.572,0,0,0-1.939,1.386,5.289,5.289,0,0,0-1.73,3.117,2.719,2.719,0,0,0,.648,2.455c.169.171.347.331.533.509-.048.1-.09.209-.148.308-.686,1.193-1.327,2.415-2.072,3.57a25.02,25.02,0,0,1-4.381,5.336c-.08.071-.087.225-.127.34a1.008,1.008,0,0,0,.355.095,11.13,11.13,0,0,0,3.846-1.288,15.149,15.149,0,0,0,5.052-4.467,3.231,3.231,0,0,1,2.5-1.391c.717-.04,1.441.022,2.161.053a11.4,11.4,0,0,0,3.437-.264,4.859,4.859,0,0,1,1.142-.209c.879-.021,1.758-.071,2.633-.154a46.257,46.257,0,0,0,5.5-.877c.358-.078.714-.165,1.072-.248Z" transform="translate(-130.515 -76.164)" fill-rule="evenodd"/>
          <path id="Path_40058" data-name="Path 40058" d="M166.128,115.314c-.1,0-.2.005-.3.014a1.576,1.576,0,0,0-1.52,1.329,1.549,1.549,0,0,0,.489,1.286,14.748,14.748,0,0,0,1.33,1.118,2.122,2.122,0,0,1,.9,2.651,5.314,5.314,0,0,1-1.494,2.43c-.063.061-.074.177-.108.268a.758.758,0,0,0,.3.032,3.082,3.082,0,0,0,.444-.222,11.79,11.79,0,0,0,2.725-1.821,3.512,3.512,0,0,0,.993-4.408,4.8,4.8,0,0,0-2.836-2.507,5.438,5.438,0,0,0-.914-.21Z" transform="translate(-154.076 -103.439)" fill-rule="evenodd"/>
          <path id="Path_40059" data-name="Path 40059" d="M169.286,82.459a2.28,2.28,0,1,0-2.272-2.262A2.273,2.273,0,0,0,169.286,82.459Z" transform="translate(-155.968 -77.374)" fill-rule="evenodd"/>
        </g>
        <g id="Group_31593" data-name="Group 31593" transform="translate(25.801)">
          <path id="Path_40060" data-name="Path 40060" d="M117.38,29.787a7.214,7.214,0,0,0-3.252.714,2.752,2.752,0,0,0-1.6,2.63,2.948,2.948,0,0,0,1.245,2.387,24.428,24.428,0,0,0,2.254,1.5,5.2,5.2,0,0,1,2.456,5.549,6.306,6.306,0,0,1-1.348,2.927c-.568.736-1.177,1.44-1.755,2.168-.068.085-.058.232-.084.351a1,1,0,0,0,.366.016,2.561,2.561,0,0,0,.5-.271,17.208,17.208,0,0,0,3.793-3.319,12.273,12.273,0,0,0,2.012-3.043,4.5,4.5,0,0,0-1.022-5.567,11.068,11.068,0,0,0-2.541-1.865c-.213-.118-.431-.228-.609-.322.858-.1,1.74-.179,2.612-.32a4.193,4.193,0,0,0,1.99-.8,1.365,1.365,0,0,0,.593-1.32,5.53,5.53,0,0,0-.372-1.355,8.616,8.616,0,0,0-1.884-2.52,30,30,0,0,0-4.817-3.813c-.319-.21-.642-.414-.97-.609a.285.285,0,0,0-.248-.019.314.314,0,0,0-.077.237,1.333,1.333,0,0,0,.07.314,19.121,19.121,0,0,0,3.024,6.34C117.594,29.787,117.487,29.785,117.38,29.787Z" transform="translate(-112.524 -22.875)" fill-rule="evenodd"/>
          <path id="Path_40061" data-name="Path 40061" d="M152.627,55.688a2.319,2.319,0,0,0-2.311-2.34,2.211,2.211,0,0,0-2.23,2.226,2.3,2.3,0,0,0,2.322,2.322A2.2,2.2,0,0,0,152.627,55.688Z" transform="translate(-137.325 -44.126)" fill-rule="evenodd"/>
        </g>
        <g id="Group_31594" data-name="Group 31594" transform="translate(20.932 34.206)">
          <path id="Path_40062" data-name="Path 40062" d="M106.206,148.392a2.35,2.35,0,0,0-1.846-.01,10.668,10.668,0,0,0-3,1.688c-.506.376-1,.776-1.481,1.179a2.325,2.325,0,0,1-2.761.158,1.666,1.666,0,0,1-.331-2.347A17.556,17.556,0,0,1,103,144.671a4.842,4.842,0,0,1,3.771.271,13.664,13.664,0,0,1,2.264,1.392,19.359,19.359,0,0,0,2.03,1.25,5.435,5.435,0,0,0,3.238.4,19.969,19.969,0,0,0,6.631-2.255c.131-.068.288-.222.419-.048s-.066.281-.173.379a24.808,24.808,0,0,1-5.638,4.023,6.883,6.883,0,0,1-3.264.856,7.578,7.578,0,0,1-3.472-.945c-.056-.031-.116-.054-.258-.12a1.845,1.845,0,0,0,.1.614,3.432,3.432,0,0,0,.62.765,15.588,15.588,0,0,1,2.208,2.188,6.478,6.478,0,0,1,.736,1.261,2.432,2.432,0,0,1-.178,2.292,14.51,14.51,0,0,1-3.079,3.6,24.405,24.405,0,0,1-4.782,3.22,1.876,1.876,0,0,1-.634.195c-.293.034-.445-.166-.338-.442a1.333,1.333,0,0,1,.311-.439,20.1,20.1,0,0,0,3.346-4.256,7.06,7.06,0,0,0,1-2.688,2.463,2.463,0,0,0-.672-2.127,6.248,6.248,0,0,1-1.523-2.339,3.4,3.4,0,0,1,.372-3.049Z" transform="translate(-96.435 -141.828)" fill-rule="evenodd"/>
          <path id="Path_40063" data-name="Path 40063" d="M98.637,181.852c.12-.043.241-.083.36-.128.232-.088.459-.2.7-.265a10.776,10.776,0,0,1,4.32-.225c.593.071,1.179.2,1.773.251a1.412,1.412,0,0,0,1.4-.629,1.5,1.5,0,0,0,.064-1.565,1.817,1.817,0,0,0-1.315-1.016,7.4,7.4,0,0,0-1.7-.126,6.527,6.527,0,0,0-5.5,3.262,3.3,3.3,0,0,0-.172.369Z" transform="translate(-97.923 -165.359)" fill-rule="evenodd"/>
          <path id="Path_40064" data-name="Path 40064" d="M144.768,140.463a2.279,2.279,0,1,0-2.274-2.276A2.262,2.262,0,0,0,144.768,140.463Z" transform="translate(-128.555 -135.905)" fill-rule="evenodd"/>
        </g>
      </g>
      <path id="Path_40065" data-name="Path 40065" d="M241.112,89.336V57.612h6.817a10.139,10.139,0,0,1,3.3.49,6.336,6.336,0,0,1,2.584,1.738,6.8,6.8,0,0,1,1.6,2.919,18.258,18.258,0,0,1,.446,4.522,22.5,22.5,0,0,1-.245,3.609,7.548,7.548,0,0,1-1.047,2.762,6.63,6.63,0,0,1-2.5,2.428,8.4,8.4,0,0,1-4.1.869h-2.317V89.336Zm4.545-27.447V72.672h2.183a4.649,4.649,0,0,0,2.139-.4,2.527,2.527,0,0,0,1.114-1.114,4.069,4.069,0,0,0,.423-1.649q.067-.979.067-2.183,0-1.113-.044-2.117a4.592,4.592,0,0,0-.4-1.76,2.535,2.535,0,0,0-1.07-1.158,4.245,4.245,0,0,0-2.049-.4Zm24.689,17.867h-9v3.074a2.183,2.183,0,0,0,.6,1.649,2.245,2.245,0,0,0,1.626.579,1.79,1.79,0,0,0,1.716-.757,4.086,4.086,0,0,0,.513-1.515h4.545a6.506,6.506,0,0,1-1.827,4.812,6.4,6.4,0,0,1-2.138,1.47,7.056,7.056,0,0,1-2.807.535,6.958,6.958,0,0,1-3.631-.892,6.035,6.035,0,0,1-2.963-4.411,16.732,16.732,0,0,1-.178-2.539V74.321a16.752,16.752,0,0,1,.178-2.54,6.038,6.038,0,0,1,2.963-4.411,6.966,6.966,0,0,1,3.631-.891,7.227,7.227,0,0,1,2.83.534,6.341,6.341,0,0,1,2.161,1.47,7.3,7.3,0,0,1,1.782,5.035Zm-9-3.565H265.8V73.608a2.756,2.756,0,0,0-.6-1.938,2.37,2.37,0,0,0-3.253,0,2.757,2.757,0,0,0-.6,1.938Zm10.346,13.144V66.746h4.545v2.183h.089a6.46,6.46,0,0,1,1.715-1.76,4.42,4.42,0,0,1,2.562-.691,5.2,5.2,0,0,1,1.693.29,3.922,3.922,0,0,1,1.515.958,4.824,4.824,0,0,1,1.069,1.716,7.2,7.2,0,0,1,.4,2.562V89.336h-4.545V73.7a3.027,3.027,0,0,0-.579-1.96,2,2,0,0,0-1.648-.713,1.917,1.917,0,0,0-1.782.8,4.478,4.478,0,0,0-.49,2.317V89.336Zm16.276-22.59V59.884h4.545v6.862h2.807v3.565h-2.807v12.52a3.91,3.91,0,0,0,.156,1.247,1.234,1.234,0,0,0,.512.668,1.921,1.921,0,0,0,.869.268q.512.044,1.27.044v4.278h-1.872a6.127,6.127,0,0,1-2.606-.49A4.688,4.688,0,0,1,289.17,87.6a4.882,4.882,0,0,1-.913-1.715,6.359,6.359,0,0,1-.29-1.849V70.311h-2.272V66.746Zm22.915-9.134v24.6a7.181,7.181,0,0,1-2.139,5.213,7.557,7.557,0,0,1-2.362,1.6,7.105,7.105,0,0,1-2.852.579,6.943,6.943,0,0,1-2.829-.579,7.737,7.737,0,0,1-3.944-3.944,7.039,7.039,0,0,1-.579-2.874v-24.6h4.545v24.15a3.4,3.4,0,0,0,.8,2.5,2.908,2.908,0,0,0,4.01,0,3.4,3.4,0,0,0,.8-2.5V57.612Zm1.925,40.858V66.746h4.545V68.8a11.169,11.169,0,0,1,1.738-1.649,4.257,4.257,0,0,1,2.585-.668,4.135,4.135,0,0,1,3.965,2.139,6.053,6.053,0,0,1,.579,1.871,19.827,19.827,0,0,1,.178,2.985v8.6a33.986,33.986,0,0,1-.134,3.609,4.334,4.334,0,0,1-2.05,3.342,4.765,4.765,0,0,1-2.584.579,4.7,4.7,0,0,1-2.384-.6,5.486,5.486,0,0,1-1.8-1.715h-.089V98.47ZM321.851,74.1a4.12,4.12,0,0,0-.535-2.228,1.856,1.856,0,0,0-1.693-.847,2.007,2.007,0,0,0-1.648.78,3.144,3.144,0,0,0-.624,2.027v8.778a2.473,2.473,0,0,0,.646,1.76,2.131,2.131,0,0,0,1.626.69,1.863,1.863,0,0,0,1.76-.8,3.646,3.646,0,0,0,.468-1.871Z" transform="translate(-149.131 -24.225)"/>
    </g>
  </g>
</svg>
