<svg xmlns="http://www.w3.org/2000/svg" xmlns:xlink="http://www.w3.org/1999/xlink" width="150" height="90" viewBox="0 0 150 90">
  <defs>
    <clipPath id="clip-path">
      <rect id="Rectangle_162030" data-name="Rectangle 162030" width="150" height="90" fill="#fff" stroke="#707070" stroke-width="1"/>
    </clipPath>
    <clipPath id="clip-Logo-it_gets_better-colour-large">
      <rect width="150" height="90"/>
    </clipPath>
  </defs>
  <g id="Logo-it_gets_better-colour-large" data-name="Logo-it gets better-colour-large" clip-path="url(#clip-Logo-it_gets_better-colour-large)">
    <g id="Mask_Group_691" data-name="Mask Group 691" clip-path="url(#clip-path)">
      <g id="Rainbow" transform="translate(-299.199 -288.456)">
        <rect id="Rectangle_162613" data-name="Rectangle 162613" width="7.333" height="31.618" transform="translate(299.2 298.818)" fill="#58266a"/>
        <path id="Path_40066" data-name="Path 40066" d="M467.921,313.327h6.134l3.36-6.259V306.6H451.1v6.727h9.494v24.884h.119l7.208-13.442Z" transform="translate(-142.412 -7.782)" fill="#58266a"/>
        <path id="Path_40067" data-name="Path 40067" d="M306.321,921.579v-6.6a18.409,18.409,0,0,1,3.323-.3,7.286,7.286,0,0,1,1.911.244l3.086-5.753a23.146,23.146,0,0,0-6.6-.874,71.751,71.751,0,0,0-8.844.687v28.982l8.72-16.271C307.3,921.673,306.864,921.635,306.321,921.579Z" transform="translate(0 -571.899)" fill="#58266a"/>
        <path id="Path_40068" data-name="Path 40068" d="M1652.9,944.618h7.333V919.727h9.488V913h-12.336l-4.485,8.363Z" transform="translate(-1269.147 -576.305)" fill="#58266a"/>
        <path id="Path_40069" data-name="Path 40069" d="M1785.377,712.383V705.7h-3.392l-3.585,6.683Z" transform="translate(-1386.808 -381.954)" fill="#58266a"/>
        <path id="Path_40070" data-name="Path 40070" d="M1995.61,306.6l-3.61,6.727h5.066v24.884h7.333V313.327h9.488V306.6Z" transform="translate(-1587.067 -7.782)" fill="#58266a"/>
        <path id="Path_40071" data-name="Path 40071" d="M2346.235,311.716c-3.966-1.68-5.565-2.374-5.565-4.441,0-1.293,1.081-2.542,3.754-2.542a14.259,14.259,0,0,1,6.989,2.586l1.855-6.558a17.358,17.358,0,0,0-8.844-2.461,13.638,13.638,0,0,0-6.027,1.274,8.671,8.671,0,0,0-5.1,7.826,9.742,9.742,0,0,0,.112,1.487c.475,3.154,2.573,5.846,7.4,7.789s5.653,3.061,5.653,4.7c0,1.555-.993,2.761-3.579,2.761a15.747,15.747,0,0,1-8.838-3.061L2332,327.713a21.314,21.314,0,0,0,10.649,3.235c7.589,0,11.255-4.791,11.255-9.831C2353.911,317.063,2352.144,314.215,2346.235,311.716Z" transform="translate(-1905.83)" fill="#58266a"/>
        <path id="Path_40072" data-name="Path 40072" d="M1490.8,913v6.727h10.125v1.63L1505.41,913Z" transform="translate(-1117.172 -576.305)" fill="#2f95b8"/>
        <path id="Path_40073" data-name="Path 40073" d="M1218.651,913,1211,927.278v17.339h7.333V919.727h10.144V913Z" transform="translate(-854.848 -576.305)" fill="#2f95b8"/>
        <path id="Path_40074" data-name="Path 40074" d="M1393.276,558.7l-8.676,16.177a22.632,22.632,0,0,0,8.676-2.986Z" transform="translate(-1017.605 -244.135)" fill="#2f95b8"/>
        <path id="Path_40075" data-name="Path 40075" d="M1569.7,338.211h13.036l3.585-6.683h-9.288v-6.165h11.561V318.98h-11.561v-5.653h12.679V306.6h-14.46l-5.553,10.356Z" transform="translate(-1191.144 -7.782)" fill="#2f95b8"/>
        <path id="Path_40076" data-name="Path 40076" d="M1921.2,313.327h4.422l3.61-6.727H1921.2Z" transform="translate(-1520.689 -7.782)" fill="#2f95b8"/>
        <path id="Path_40077" data-name="Path 40077" d="M1059.1,913v6.727h9.488v7.545L1076.239,913Z" transform="translate(-712.436 -576.305)" fill="#f8ae42"/>
        <path id="Path_40078" data-name="Path 40078" d="M1097.209,330.948a25.486,25.486,0,0,0,3.317-.206l8.676-16.184v-1.9H1095.96v6.252h6.34v4.666a9.17,9.17,0,0,1-4.659.862c-5.172,0-9.232-3.754-9.232-9.794,0-5.565,3.367-9.488,9.663-9.488a15.382,15.382,0,0,1,7.077,1.768l3.061-5.909A22.15,22.15,0,0,0,1097.6,298.3a19.69,19.69,0,0,0-4.385.506L1081.6,320.467C1083.9,326.87,1089.951,330.948,1097.209,330.948Z" transform="translate(-733.531 0)" fill="#f8ae42"/>
        <path id="Path_40079" data-name="Path 40079" d="M1569.7,316.956l5.553-10.356H1569.7Z" transform="translate(-1191.144 -7.782)" fill="#f8ae42"/>
        <path id="Path_40080" data-name="Path 40080" d="M709.4,1130.438h20.012v-6.69h-12.68v-6.165h11.555V1111.2H717.32l-7.92,14.772Z" transform="translate(-384.579 -762.126)" fill="#f8ae42"/>
        <path id="Path_40081" data-name="Path 40081" d="M893.763,919.727V913H888.3l-3.6,6.727Z" transform="translate(-548.929 -576.305)" fill="#f8ae42"/>
        <path id="Path_40082" data-name="Path 40082" d="M821.96,320.359V314.1l-3.36,6.259Z" transform="translate(-486.958 -14.813)" fill="#db5b6b"/>
        <path id="Path_40083" data-name="Path 40083" d="M612.208,597.5,605,610.942h7.208Z" transform="translate(-286.7 -280.512)" fill="#db5b6b"/>
        <path id="Path_40084" data-name="Path 40084" d="M1065.7,322.24a17.172,17.172,0,0,0,1,5.821l11.611-21.661A15.8,15.8,0,0,0,1065.7,322.24Z" transform="translate(-718.624 -7.594)" fill="#db5b6b"/>
        <path id="Path_40085" data-name="Path 40085" d="M308.644,953.449c9.488,0,14.147-4.354,14.147-9.275,0-3.623-2.03-6.121-6.34-7.42,3.579-1.468,5.434-3.71,5.434-7.033,0-3.179-2.442-6.19-7.252-7.62l-3.086,5.753a3.345,3.345,0,0,1,2.786,3.2c0,2.286-1.768,3.579-5.3,3.579-.443,0-.8-.006-1.112-.013l-8.72,16.271v1.9A79.852,79.852,0,0,0,308.644,953.449Zm.437-13.841c3.885,0,5.778,1.38,5.778,3.8,0,2.374-1.768,3.8-5.478,3.8a29.19,29.19,0,0,1-3.061-.131v-7.333A23.764,23.764,0,0,1,309.081,939.608Z" transform="translate(0 -584.837)" fill="#db5b6b"/>
        <path id="Path_40086" data-name="Path 40086" d="M716.733,925.38v-5.653h3.616l3.6-6.727H709.4v27.152l7.92-14.772Z" transform="translate(-384.579 -576.305)" fill="#db5b6b"/>
        <path id="Path_40087" data-name="Path 40087" d="M1971.612,919.727V913H1951.6v31.618h20.012v-6.69h-12.68v-6.165h11.555V925.38h-11.555v-5.653Z" transform="translate(-1549.19 -576.305)" fill="#58266a"/>
        <path id="Path_40088" data-name="Path 40088" d="M2323.235,920.081c0-5.778-3.879-10.481-13.716-10.481a79.58,79.58,0,0,0-9.319.518V941.43h7.333V931.08c1.037.044,1.637.088,2.717.088a11.913,11.913,0,0,0,1.249-.044l5.39,10.306h8.326l-7.414-12.2A10.612,10.612,0,0,0,2323.235,920.081Zm-13.373,5.128a22.029,22.029,0,0,1-2.33-.131v-8.707a15.056,15.056,0,0,1,2.848-.219c3.148,0,5.216,1.555,5.216,4.185C2315.6,923.529,2313.36,925.209,2309.863,925.209Z" transform="translate(-1876.016 -573.118)" fill="#58266a"/>
        <g id="Group_31597" data-name="Group 31597" transform="translate(445.577 336.045)">
          <path id="Path_40089" data-name="Path 40089" d="M2644.143,902.6a1.457,1.457,0,0,1,.706.187,1.294,1.294,0,0,1,.537.531,1.449,1.449,0,0,1,.006,1.437,1.315,1.315,0,0,1-.531.531,1.47,1.47,0,0,1-1.437,0,1.316,1.316,0,0,1-.531-.531,1.488,1.488,0,0,1-.194-.712,1.45,1.45,0,0,1,.194-.725,1.332,1.332,0,0,1,.537-.531A1.518,1.518,0,0,1,2644.143,902.6Zm0,.237a1.181,1.181,0,0,0-.587.156,1.1,1.1,0,0,0-.45.443,1.236,1.236,0,0,0-.162.6,1.188,1.188,0,0,0,.156.593,1.163,1.163,0,0,0,.444.443,1.194,1.194,0,0,0,.6.156,1.228,1.228,0,0,0,.6-.156,1.12,1.12,0,0,0,.443-.443,1.188,1.188,0,0,0,.156-.593,1.236,1.236,0,0,0-.162-.6,1.062,1.062,0,0,0-.45-.443A1.233,1.233,0,0,0,2644.143,902.837Zm-.631,2v-1.549h.531a1.208,1.208,0,0,1,.394.044.417.417,0,0,1,.194.15.387.387,0,0,1,.075.225.4.4,0,0,1-.119.294.5.5,0,0,1-.319.144.428.428,0,0,1,.131.081,1.992,1.992,0,0,1,.231.306l.188.306h-.306l-.137-.244a1.18,1.18,0,0,0-.262-.362.3.3,0,0,0-.2-.056h-.15v.656h-.25Zm.25-.874h.306a.475.475,0,0,0,.293-.062.219.219,0,0,0,.081-.169.226.226,0,0,0-.038-.125.231.231,0,0,0-.106-.081.772.772,0,0,0-.25-.025h-.281v.462Z" transform="translate(-2642.7 -902.6)" fill="#572669"/>
        </g>
      </g>
    </g>
  </g>
</svg>
